<svg xmlns="http://www.w3.org/2000/svg" viewBox="0 0 600 226" fill="none" stroke="currentColor">
<rect class="d-muted" x="16" y="40" width="176" height="120" rx="4"/>
<path class="d-stroke-0" stroke-width="2.5" stroke-linejoin="round" d="M38.5 135.0 H104.0 V60.0 H169.5 V105.0"/>
<rect fill="currentColor" stroke="none" x="34.5" y="131.0" width="8" height="8" transform="rotate(45 38.5 135.0)"/>
<rect fill="currentColor" stroke="none" x="100.0" y="56.0" width="8" height="8" transform="rotate(45 104.0 60.0)"/>
<rect fill="currentColor" stroke="none" x="165.5" y="101.0" width="8" height="8" transform="rotate(45 169.5 105.0)"/>
<rect class="d-muted" x="208" y="40" width="176" height="120" rx="4"/>
<path class="d-stroke-1" stroke-width="2.5" stroke-linejoin="round" d="M230.5 135.0 L296.0 60.0 L361.5 105.0"/>
<rect fill="currentColor" stroke="none" x="226.5" y="131.0" width="8" height="8" transform="rotate(45 230.5 135.0)"/>
<rect fill="currentColor" stroke="none" x="292.0" y="56.0" width="8" height="8" transform="rotate(45 296.0 60.0)"/>
<rect fill="currentColor" stroke="none" x="357.5" y="101.0" width="8" height="8" transform="rotate(45 361.5 105.0)"/>
<rect class="d-muted" x="400" y="40" width="176" height="120" rx="4"/>
<path class="d-muted" stroke-width="1" d="M461.8 60.0 H514.2"/>
<circle class="d-muted" fill="currentColor" stroke="none" cx="461.8" cy="60.0" r="2.5"/>
<circle class="d-muted" fill="currentColor" stroke="none" cx="514.2" cy="60.0" r="2.5"/>
<path class="d-stroke-2" stroke-width="2.5" stroke-linejoin="round" d="M422.5 135.0 C448.7 135.0 461.8 60.0 488.0 60.0 C514.2 60.0 527.3 105.0 553.5 105.0"/>
<rect fill="currentColor" stroke="none" x="418.5" y="131.0" width="8" height="8" transform="rotate(45 422.5 135.0)"/>
<rect fill="currentColor" stroke="none" x="484.0" y="56.0" width="8" height="8" transform="rotate(45 488.0 60.0)"/>
<rect fill="currentColor" stroke="none" x="549.5" y="101.0" width="8" height="8" transform="rotate(45 553.5 105.0)"/>
<g fill="currentColor" stroke="none" font-size="12">
  <text x="16" y="28" font-size="11" class="d-muted">value ↑ · time → · ◆ = keyframe; the same three keys, three interpolation modes</text>
  <text x="104.0" y="180" text-anchor="middle">constant</text>
  <text x="104.0" y="196" text-anchor="middle" font-size="11" class="d-muted">step: holds, then jumps</text>
  <text x="104.0" y="212" text-anchor="middle" font-size="11" class="d-muted">glTF: STEP</text>
  <text x="296.0" y="180" text-anchor="middle">linear</text>
  <text x="296.0" y="196" text-anchor="middle" font-size="11" class="d-muted">straight lines, sharp turns</text>
  <text x="296.0" y="212" text-anchor="middle" font-size="11" class="d-muted">glTF: LINEAR</text>
  <text x="488.0" y="180" text-anchor="middle">Bézier</text>
  <text x="488.0" y="196" text-anchor="middle" font-size="11" class="d-muted">eases in and out</text>
  <text x="488.0" y="212" text-anchor="middle" font-size="11" class="d-muted">glTF: CUBICSPLINE / sampled</text>
</g>
</svg>
