<svg xmlns="http://www.w3.org/2000/svg" viewBox="0 0 600 282" fill="none" stroke="currentColor">
<path class="d-muted" stroke-width="1.5" d="M300.0 82 V100.0 H104.0 V118"/>
<path class="d-muted" stroke-width="1.5" d="M300.0 82 V100.0 H300.0 V118"/>
<path class="d-muted" stroke-width="1.5" d="M300.0 82 V100.0 H496.0 V118"/>
<path class="d-muted" stroke-width="1.5" d="M496.0 176 V194.0 H496.0 V212"/>
<rect class="d-chip" stroke-width="1.5" x="212" y="24" width="176" height="58" rx="5"/>
<rect class="d-bg" stroke-width="1.5" x="16" y="118" width="176" height="58" rx="5"/>
<rect class="d-bg" stroke-width="1.5" x="212" y="118" width="176" height="58" rx="5"/>
<rect class="d-bg" stroke-width="1.5" x="408" y="118" width="176" height="58" rx="5"/>
<rect class="d-bg" stroke-width="1.5" x="408" y="212" width="176" height="58" rx="5"/>
<g fill="currentColor" stroke="none" font-size="12">
  <text x="222" y="41">Car (root)</text>
  <text x="222" y="57" font-size="11" class="d-fill-0">local (10, 0, 0)</text>
  <text x="222" y="72" font-size="11" class="d-muted">world (10, 0, 0)</text>
  <text x="26" y="135">Body</text>
  <text x="26" y="151" font-size="11" class="d-fill-0">local (0, 0, 0)</text>
  <text x="26" y="166" font-size="11" class="d-muted">world (10, 0, 0)</text>
  <text x="222" y="135">Wheel_FL</text>
  <text x="222" y="151" font-size="11" class="d-fill-0">local (0.8, 0.35, 1.3)</text>
  <text x="222" y="166" font-size="11" class="d-muted">world (10.8, 0.35, 1.3)</text>
  <text x="418" y="135">Door_L, hinge origin</text>
  <text x="418" y="151" font-size="11" class="d-fill-0">local (0.9, 0.6, 0.2)</text>
  <text x="418" y="166" font-size="11" class="d-muted">world (10.9, 0.6, 0.2)</text>
  <text x="418" y="229">Handle</text>
  <text x="418" y="245" font-size="11" class="d-fill-0">local (−0.4, 0.1, 0.05)</text>
  <text x="418" y="260" font-size="11" class="d-muted">world (10.5, 0.7, 0.25)</text>
  <g font-size="11" class="d-muted">
    <text x="16" y="226">world = parent's world transform × local transform</text>
    <text x="16" y="244">Move Car: every child follows. Rotate Door_L: it swings</text>
    <text x="16" y="260">around its origin (the hinge), and Handle swings with it.</text>
  </g>
</g>
</svg>
