<svg xmlns="http://www.w3.org/2000/svg" viewBox="0 0 600 310" fill="none" stroke="currentColor">
<circle class="d-fill-0 d-tint" fill="currentColor" fill-opacity="0.2" stroke-width="1.5" cx="300" cy="150" r="30"/>
<path stroke-width="2" d="M292 178 L300 190 L308 178"/>
<path class="d-stroke-0" stroke-width="3.5" stroke-linecap="round" d="M170.2 206.3 L254.1 169.9"/>
<path class="d-fill-0" fill="currentColor" stroke="none" d="M263.3 165.9 L252.1 165.3 L256.1 174.5 Z"/>
<path class="d-stroke-1" stroke-width="1.5" stroke-linecap="round" d="M440.1 215.7 L345.3 171.2"/>
<path class="d-fill-1" fill="currentColor" stroke="none" d="M336.2 167.0 L343.2 175.7 L347.4 166.7 Z"/>
<path class="d-stroke-2" stroke-width="2.5" stroke-linecap="round" d="M393.9 63.0 L336.7 116.0"/>
<path class="d-fill-2" fill="currentColor" stroke="none" d="M329.3 122.8 L340.1 119.7 L333.3 112.3 Z"/>
<circle class="d-fill-0" fill="currentColor" stroke="none" cx="150" cy="215" r="12"/>
<circle class="d-fill-1" fill="currentColor" stroke="none" cx="460" cy="225" r="12"/>
<circle class="d-fill-2" fill="currentColor" stroke="none" cx="410" cy="48" r="12"/>
<path stroke-width="2" stroke-linejoin="round" d="M284 299 H316 V285 L308 277 H292 L284 285 Z"/>
<path class="d-muted" stroke-dasharray="3 4" d="M300 275 V194"/>
<g fill="currentColor" stroke="none" font-size="12">
  <text x="300" y="154" text-anchor="middle" font-size="11">subject</text>
  <text x="326" y="293">camera</text>
  <text x="132" y="193" text-anchor="middle" class="d-fill-0">key light</text>
  <text x="132" y="245" text-anchor="middle" font-size="11" class="d-muted">main, brightest; ~45° to the</text>
  <text x="132" y="259" text-anchor="middle" font-size="11" class="d-muted">side and ~30–45° above</text>
  <text x="480" y="203" text-anchor="middle" class="d-fill-1">fill light</text>
  <text x="480" y="255" text-anchor="middle" font-size="11" class="d-muted">opposite side, softer,</text>
  <text x="480" y="269" text-anchor="middle" font-size="11" class="d-muted">~25–50% of the key</text>
  <text x="432" y="44" class="d-fill-2">rim (back) light</text>
  <text x="432" y="60" font-size="11" class="d-muted">behind, outlines the</text>
  <text x="432" y="74" font-size="11" class="d-muted">silhouette</text>
  <text x="20" y="28" font-size="13">Three-point lighting, seen from above</text>
  <text x="20" y="46" font-size="11" class="d-muted">An HDRI often stands in for the fill.</text>
</g>
</svg>
