<svg xmlns="http://www.w3.org/2000/svg" viewBox="0 0 600 330" fill="none" stroke="currentColor">
  <defs>
    <marker id="anim-pipeline-arrow" viewBox="0 0 10 10" refX="8" refY="5" markerWidth="7" markerHeight="7" orient="auto-start-reverse">
      <path d="M0 0 L10 5 L0 10 z" fill="currentColor" stroke="none"/>
    </marker>
  </defs>
  <rect x="16" y="20" width="118" height="40" rx="4"/>
  <rect x="166" y="20" width="118" height="40" rx="4"/>
  <rect x="316" y="20" width="118" height="40" rx="4"/>
  <rect x="466" y="20" width="118" height="40" rx="4"/>
  <path d="M136 40 H 162" marker-end="url(#anim-pipeline-arrow)"/>
  <path d="M286 40 H 312" marker-end="url(#anim-pipeline-arrow)"/>
  <path d="M436 40 H 462" marker-end="url(#anim-pipeline-arrow)"/>
  <g stroke="none">
    <rect class="d-fill-1 d-tint" x="16" y="118" width="118" height="28" rx="3"/>
    <rect class="d-fill-1 d-tint" x="166" y="118" width="118" height="28" rx="3"/>
    <rect class="d-fill-1 d-tint" x="316" y="118" width="118" height="28" rx="3"/>
    <rect class="d-fill-1 d-tint" x="466" y="118" width="118" height="28" rx="3"/>
    <rect class="d-fill-3 d-tint" x="16" y="190" width="118" height="28" rx="3"/>
    <rect class="d-fill-3 d-tint" x="316" y="190" width="118" height="28" rx="3"/>
    <rect class="d-fill-3 d-tint" x="466" y="190" width="118" height="28" rx="3"/>
    <rect class="d-fill-2 d-tint" x="466" y="262" width="118" height="28" rx="3"/>
  </g>
  <g class="d-muted" stroke-dasharray="4 4">
    <rect x="166" y="190" width="118" height="28" rx="3"/>
    <rect x="16" y="262" width="118" height="28" rx="3"/>
    <rect x="166" y="262" width="118" height="28" rx="3"/>
    <rect x="316" y="262" width="118" height="28" rx="3"/>
  </g>
  <g fill="currentColor" stroke="none">
    <text x="75" y="45" text-anchor="middle">Style</text>
    <text x="225" y="45" text-anchor="middle">Layout</text>
    <text x="375" y="45" text-anchor="middle">Paint</text>
    <text x="525" y="45" text-anchor="middle">Composite</text>
    <g font-size="11" class="d-muted" text-anchor="middle">
      <text x="75" y="78">computed values</text>
      <text x="225" y="78">sizes, positions</text>
      <text x="375" y="78">fill in pixels</text>
      <text x="525" y="78">move layers (GPU)</text>
      <text x="225" y="208">skip</text>
      <text x="75" y="280">skip</text>
      <text x="225" y="280">skip</text>
      <text x="375" y="280">skip</text>
    </g>
    <text x="16" y="110">width height top margin grid-*</text>
    <text x="584" y="110" text-anchor="end" class="d-fill-1">expensive</text>
    <text x="16" y="182">color background box-shadow</text>
    <text x="584" y="182" text-anchor="end" class="d-fill-3">moderate</text>
    <text x="16" y="254">transform translate scale opacity</text>
    <text x="584" y="254" text-anchor="end" class="d-fill-2">cheap</text>
    <text x="300" y="320" text-anchor="middle" font-size="11" class="d-muted">every frame reruns each stage from the first one the property triggers</text>
  </g>
</svg>
