<svg xmlns="http://www.w3.org/2000/svg" viewBox="0 0 600 418" fill="none" stroke="currentColor">
  <defs>
    <marker id="atc-journey-arrow" viewBox="0 0 10 10" refX="8" refY="5" markerWidth="6" markerHeight="6" orient="auto-start-reverse">
      <path d="M0 0 L10 5 L0 10 z" fill="currentColor" stroke="none"/>
    </marker>
  </defs>
  <rect class="d-chip" x="90" y="28" width="90" height="24" rx="5" stroke-width="1"/>
  <path stroke-width="1.5" d="M181 40 H 190" marker-end="url(#atc-journey-arrow)"/>
  <rect class="d-chip" x="192" y="28" width="90" height="24" rx="5" stroke-width="1"/>
  <path stroke-width="1.5" d="M283 40 H 292" marker-end="url(#atc-journey-arrow)"/>
  <rect class="d-chip" x="294" y="28" width="90" height="24" rx="5" stroke-width="1"/>
  <path stroke-width="1.5" d="M385 40 H 394" marker-end="url(#atc-journey-arrow)"/>
  <rect class="d-chip" x="396" y="28" width="90" height="24" rx="5" stroke-width="1"/>
  <path stroke-width="1.5" d="M487 40 H 496" marker-end="url(#atc-journey-arrow)"/>
  <rect class="d-chip" x="498" y="28" width="90" height="24" rx="5" stroke-width="1"/>
  <rect class="d-bg d-stroke-0" x="90" y="60" width="90" height="36" rx="5" stroke-width="1.5"/>
  <rect class="d-bg d-muted" x="192" y="60" width="90" height="36" rx="5" stroke-width="1.5" stroke-dasharray="4 3"/>
  <rect class="d-bg d-stroke-0" x="294" y="60" width="90" height="36" rx="5" stroke-width="1.5"/>
  <rect class="d-bg d-stroke-0" x="396" y="60" width="90" height="36" rx="5" stroke-width="1.5"/>
  <rect class="d-bg d-muted" x="498" y="60" width="90" height="36" rx="5" stroke-width="1.5" stroke-dasharray="4 3"/>
  <rect class="d-bg d-stroke-1" x="90" y="102" width="90" height="36" rx="5" stroke-width="1.5"/>
  <rect class="d-bg d-stroke-1" x="294" y="102" width="90" height="36" rx="5" stroke-width="1.5"/>
  <rect class="d-bg d-stroke-1" x="396" y="102" width="90" height="36" rx="5" stroke-width="1.5"/>
  <rect class="d-bg d-muted" x="498" y="102" width="90" height="36" rx="5" stroke-width="1.5" stroke-dasharray="4 3"/>
  <rect class="d-bg d-stroke-2" x="90" y="144" width="90" height="36" rx="5" stroke-width="1.5"/>
  <rect class="d-bg d-stroke-2" x="192" y="144" width="90" height="36" rx="5" stroke-width="1.5"/>
  <rect class="d-bg d-stroke-2" x="294" y="144" width="90" height="36" rx="5" stroke-width="1.5"/>
  <rect class="d-bg d-stroke-2" x="396" y="144" width="90" height="36" rx="5" stroke-width="1.5"/>
  <rect class="d-bg d-stroke-2" x="498" y="144" width="90" height="36" rx="5" stroke-width="1.5"/>
  <rect class="d-chip" x="90" y="224" width="90" height="24" rx="5" stroke-width="1"/>
  <path stroke-width="1.5" d="M181 236 H 190" marker-end="url(#atc-journey-arrow)"/>
  <rect class="d-chip" x="192" y="224" width="90" height="24" rx="5" stroke-width="1"/>
  <path stroke-width="1.5" d="M283 236 H 292" marker-end="url(#atc-journey-arrow)"/>
  <rect class="d-chip" x="294" y="224" width="90" height="24" rx="5" stroke-width="1"/>
  <path stroke-width="1.5" d="M385 236 H 394" marker-end="url(#atc-journey-arrow)"/>
  <rect class="d-chip" x="396" y="224" width="90" height="24" rx="5" stroke-width="1"/>
  <path stroke-width="1.5" d="M487 236 H 496" marker-end="url(#atc-journey-arrow)"/>
  <rect class="d-chip" x="498" y="224" width="90" height="24" rx="5" stroke-width="1"/>
  <rect class="d-bg d-muted" x="90" y="256" width="90" height="36" rx="5" stroke-width="1.5" stroke-dasharray="4 3"/>
  <rect class="d-bg d-stroke-0" x="192" y="256" width="90" height="36" rx="5" stroke-width="1.5"/>
  <rect class="d-bg d-stroke-0" x="294" y="256" width="90" height="36" rx="5" stroke-width="1.5"/>
  <rect class="d-bg d-stroke-0" x="396" y="256" width="90" height="36" rx="5" stroke-width="1.5"/>
  <rect class="d-bg d-stroke-0" x="498" y="256" width="90" height="36" rx="5" stroke-width="1.5"/>
  <rect class="d-bg d-muted" x="90" y="298" width="90" height="36" rx="5" stroke-width="1.5" stroke-dasharray="4 3"/>
  <rect class="d-bg d-stroke-1" x="192" y="298" width="90" height="36" rx="5" stroke-width="1.5"/>
  <rect class="d-bg d-muted" x="294" y="298" width="90" height="36" rx="5" stroke-width="1.5" stroke-dasharray="4 3"/>
  <rect class="d-bg d-stroke-1" x="396" y="298" width="90" height="36" rx="5" stroke-width="1.5"/>
  <rect class="d-bg d-stroke-1" x="498" y="298" width="90" height="36" rx="5" stroke-width="1.5"/>
  <rect class="d-bg d-stroke-2" x="90" y="340" width="90" height="36" rx="5" stroke-width="1.5"/>
  <rect class="d-bg d-stroke-2" x="192" y="340" width="90" height="36" rx="5" stroke-width="1.5"/>
  <rect class="d-bg d-stroke-2" x="294" y="340" width="90" height="36" rx="5" stroke-width="1.5"/>
  <rect class="d-bg d-stroke-2" x="396" y="340" width="90" height="36" rx="5" stroke-width="1.5"/>
  <rect class="d-bg d-stroke-2" x="498" y="340" width="90" height="36" rx="5" stroke-width="1.5"/>
  <rect class="d-bg d-stroke-0" x="84" y="392" width="28" height="16" rx="5" stroke-width="1.5"/>
  <rect class="d-bg d-muted" x="260" y="392" width="28" height="16" rx="5" stroke-width="1.5" stroke-dasharray="4 3"/>
  <g fill="currentColor" stroke="none">
    <text x="8" y="18" font-size="13" text-anchor="start" font-weight="600">1  Departing</text>
    <text x="135.0" y="44" font-size="12" text-anchor="middle" font-weight="600">ATIS</text>
    <text x="237.0" y="44" font-size="12" text-anchor="middle" font-weight="600">Clearance</text>
    <text x="339.0" y="44" font-size="12" text-anchor="middle" font-weight="600">Ground</text>
    <text x="441.0" y="44" font-size="12" text-anchor="middle" font-weight="600">Tower</text>
    <text x="543.0" y="44" font-size="12" text-anchor="middle" font-weight="600">Departure</text>
    <text x="8" y="75" font-size="12" text-anchor="start" class="d-fill-0" font-weight="600">VFR</text>
    <text x="8" y="89" font-size="12" text-anchor="start" class="d-fill-0" font-weight="600">towered</text>
    <text x="135.0" y="82" font-size="12" text-anchor="middle">ATIS</text>
    <text x="237.0" y="75" font-size="12" text-anchor="middle">Clearance</text>
    <text x="237.0" y="89" font-size="11" text-anchor="middle" class="d-muted">B or C only</text>
    <text x="339.0" y="82" font-size="12" text-anchor="middle">Ground</text>
    <text x="441.0" y="82" font-size="12" text-anchor="middle">Tower</text>
    <text x="543.0" y="75" font-size="12" text-anchor="middle">Departure</text>
    <text x="543.0" y="89" font-size="11" text-anchor="middle" class="d-muted">flt following</text>
    <text x="8" y="117" font-size="12" text-anchor="start" class="d-fill-1" font-weight="600">VFR</text>
    <text x="8" y="131" font-size="12" text-anchor="start" class="d-fill-1" font-weight="600">untowered</text>
    <text x="135.0" y="124" font-size="12" text-anchor="middle">AWOS/ASOS</text>
    <text x="237.0" y="124" font-size="12" text-anchor="middle" class="d-muted">—</text>
    <text x="339.0" y="117" font-size="12" text-anchor="middle">CTAF</text>
    <text x="339.0" y="131" font-size="11" text-anchor="middle" class="d-muted">self-announce</text>
    <text x="441.0" y="117" font-size="12" text-anchor="middle">CTAF</text>
    <text x="441.0" y="131" font-size="11" text-anchor="middle" class="d-muted">self-announce</text>
    <text x="543.0" y="117" font-size="12" text-anchor="middle">Approach</text>
    <text x="543.0" y="131" font-size="11" text-anchor="middle" class="d-muted">flt following</text>
    <text x="8" y="166" font-size="12" text-anchor="start" class="d-fill-2" font-weight="600">IFR</text>
    <text x="135.0" y="166" font-size="12" text-anchor="middle">ATIS</text>
    <text x="237.0" y="166" font-size="12" text-anchor="middle">Clearance</text>
    <text x="339.0" y="166" font-size="12" text-anchor="middle">Ground</text>
    <text x="441.0" y="166" font-size="12" text-anchor="middle">Tower</text>
    <text x="543.0" y="166" font-size="12" text-anchor="middle">Departure</text>
    <text x="8" y="214" font-size="13" text-anchor="start" font-weight="600">2  En route and arriving</text>
    <text x="135.0" y="240" font-size="12" text-anchor="middle" font-weight="600">Center</text>
    <text x="237.0" y="240" font-size="12" text-anchor="middle" font-weight="600">ATIS</text>
    <text x="339.0" y="240" font-size="12" text-anchor="middle" font-weight="600">Approach</text>
    <text x="441.0" y="240" font-size="12" text-anchor="middle" font-weight="600">Tower</text>
    <text x="543.0" y="240" font-size="12" text-anchor="middle" font-weight="600">Ground</text>
    <text x="8" y="271" font-size="12" text-anchor="start" class="d-fill-0" font-weight="600">VFR</text>
    <text x="8" y="285" font-size="12" text-anchor="start" class="d-fill-0" font-weight="600">towered</text>
    <text x="135.0" y="271" font-size="12" text-anchor="middle">Center</text>
    <text x="135.0" y="285" font-size="11" text-anchor="middle" class="d-muted">flt following</text>
    <text x="237.0" y="278" font-size="12" text-anchor="middle">ATIS</text>
    <text x="339.0" y="271" font-size="12" text-anchor="middle">Approach</text>
    <text x="339.0" y="285" font-size="11" text-anchor="middle" class="d-muted">required B, C</text>
    <text x="441.0" y="271" font-size="12" text-anchor="middle">Tower</text>
    <text x="441.0" y="285" font-size="11" text-anchor="middle" class="d-muted">call ~15 NM</text>
    <text x="543.0" y="278" font-size="12" text-anchor="middle">Ground</text>
    <text x="8" y="313" font-size="12" text-anchor="start" class="d-fill-1" font-weight="600">VFR</text>
    <text x="8" y="327" font-size="12" text-anchor="start" class="d-fill-1" font-weight="600">untowered</text>
    <text x="135.0" y="313" font-size="12" text-anchor="middle">Center</text>
    <text x="135.0" y="327" font-size="11" text-anchor="middle" class="d-muted">flt following</text>
    <text x="237.0" y="320" font-size="12" text-anchor="middle">AWOS/ASOS</text>
    <text x="339.0" y="313" font-size="12" text-anchor="middle">Approach</text>
    <text x="339.0" y="327" font-size="11" text-anchor="middle" class="d-muted">flt following</text>
    <text x="441.0" y="313" font-size="12" text-anchor="middle">CTAF</text>
    <text x="441.0" y="327" font-size="11" text-anchor="middle" class="d-muted">call 10 NM</text>
    <text x="543.0" y="313" font-size="12" text-anchor="middle">CTAF</text>
    <text x="543.0" y="327" font-size="11" text-anchor="middle" class="d-muted">clear of rwy</text>
    <text x="8" y="362" font-size="12" text-anchor="start" class="d-fill-2" font-weight="600">IFR</text>
    <text x="135.0" y="362" font-size="12" text-anchor="middle">Center</text>
    <text x="237.0" y="362" font-size="12" text-anchor="middle">ATIS</text>
    <text x="339.0" y="362" font-size="12" text-anchor="middle">Approach</text>
    <text x="441.0" y="362" font-size="12" text-anchor="middle">Tower</text>
    <text x="543.0" y="362" font-size="12" text-anchor="middle">Ground</text>
    <text x="118" y="404" font-size="11" text-anchor="start">you call or listen</text>
    <text x="294" y="404" font-size="11" text-anchor="start">optional, or only in some airspace</text>
  </g>
</svg>
