<svg xmlns="http://www.w3.org/2000/svg" viewBox="0 0 600 404" fill="none" stroke="currentColor">
  <defs>
    <marker id="export-pipeline-web-arrow" viewBox="0 0 10 10" refX="8" refY="5" markerWidth="7" markerHeight="7" orient="auto-start-reverse">
      <path d="M0 0 L10 5 L0 10 z" fill="currentColor" stroke="none"/>
    </marker>
  </defs>
  <g stroke="none">
    <rect class="d-fill-1 d-tint" x="16" y="16" width="236" height="40" rx="4"/>
    <rect class="d-fill-1 d-tint" x="16" y="74" width="236" height="40" rx="4"/>
    <rect class="d-fill-1 d-tint" x="16" y="132" width="236" height="40" rx="4"/>
    <rect class="d-fill-2 d-tint" x="16" y="248" width="236" height="40" rx="4"/>
    <rect class="d-fill-2 d-tint" x="16" y="306" width="236" height="40" rx="4"/>
  </g>
  <g class="d-stroke-1">
    <rect x="16" y="16" width="236" height="40" rx="4"/>
    <rect x="16" y="74" width="236" height="40" rx="4"/>
    <rect x="16" y="132" width="236" height="40" rx="4"/>
  </g>
  <rect class="d-muted" x="16" y="190" width="236" height="40" rx="4" stroke-dasharray="4 4"/>
  <g class="d-stroke-2">
    <rect x="16" y="248" width="236" height="40" rx="4"/>
    <rect x="16" y="306" width="236" height="40" rx="4"/>
  </g>
  <g>
    <path d="M134 57 V 70" marker-end="url(#export-pipeline-web-arrow)"/>
    <path d="M134 115 V 128" marker-end="url(#export-pipeline-web-arrow)"/>
    <path d="M134 173 V 186" marker-end="url(#export-pipeline-web-arrow)"/>
    <path d="M134 231 V 244" marker-end="url(#export-pipeline-web-arrow)"/>
    <path d="M134 289 V 302" marker-end="url(#export-pipeline-web-arrow)"/>
  </g>
  <g fill="currentColor" stroke="none" font-size="13">
    <text x="134" y="41" text-anchor="middle">Blender scene (.blend)</text>
    <text x="134" y="99" text-anchor="middle">glTF exporter → model.glb</text>
    <text x="134" y="157" text-anchor="middle">gltf-transform or gltfpack</text>
    <text x="134" y="215" text-anchor="middle">public/ folder or CDN</text>
    <text x="134" y="273" text-anchor="middle">GLTFLoader + decoders</text>
    <text x="134" y="331" text-anchor="middle">scene.add(gltf.scene)</text>
    <g class="d-muted" font-size="12">
      <text x="268" y="33">apply transforms, Principled BSDF,</text>
      <text x="268" y="49">bake procedural materials</text>
      <text x="268" y="91">+Y up, meters, one binary file;</text>
      <text x="268" y="107">faces triangulated on export</text>
      <text x="268" y="149">Meshopt or Draco geometry,</text>
      <text x="268" y="165">WebP or KTX2 textures, ≤ 2K</text>
      <text x="268" y="207">long cache headers,</text>
      <text x="268" y="223">content type model/gltf-binary</text>
      <text x="268" y="265">DRACOLoader, KTX2Loader,</text>
      <text x="268" y="281">MeshoptDecoder set up once</text>
      <text x="268" y="323">AnimationMixer plays</text>
      <text x="268" y="339">gltf.animations</text>
    </g>
    <rect class="d-fill-1 d-tint" x="16" y="374" width="14" height="14" rx="2"/>
    <text x="38" y="386">Blender side (this sheet)</text>
    <rect class="d-fill-2 d-tint" x="300" y="374" width="14" height="14" rx="2"/>
    <text x="322" y="386">three.js side (three.js sheets)</text>
  </g>
</svg>
