<svg xmlns="http://www.w3.org/2000/svg" viewBox="0 0 600 196" fill="none" stroke="currentColor">
  <g stroke="none">
    <rect class="d-fill-2 d-tint" x="70" y="32" width="230" height="28"/>
    <rect class="d-chip" x="300" y="32" width="150" height="28"/>
    <rect class="d-fill-1 d-tint" x="450" y="32" width="134" height="28"/>
    <rect class="d-fill-2 d-tint" x="70" y="88" width="230" height="28"/>
    <rect class="d-chip" x="300" y="88" width="150" height="28"/>
    <rect class="d-fill-1 d-tint" x="450" y="88" width="134" height="28"/>
    <rect class="d-fill-2 d-tint" x="70" y="144" width="230" height="28"/>
    <rect class="d-chip" x="300" y="144" width="150" height="28"/>
    <rect class="d-fill-1 d-tint" x="450" y="144" width="134" height="28"/>
  </g>
  <rect x="70" y="32" width="514" height="28"/>
  <rect x="70" y="88" width="514" height="28"/>
  <rect x="70" y="144" width="514" height="28"/>
  <path d="M300 32 V 64 M450 32 V 64 M300 88 V 120 M450 88 V 120 M300 144 V 176 M450 144 V 176"/>
  <g fill="currentColor" stroke="none">
    <text x="185" y="22" text-anchor="middle" class="d-fill-2">good</text>
    <text x="375" y="22" text-anchor="middle">needs improvement</text>
    <text x="517" y="22" text-anchor="middle" class="d-fill-1">poor</text>
    <text x="16" y="51">LCP</text>
    <text x="16" y="107">INP</text>
    <text x="16" y="163">CLS</text>
    <g font-size="11" text-anchor="middle">
      <text x="300" y="76">2.5 s</text>
      <text x="450" y="76">4.0 s</text>
      <text x="300" y="132">200 ms</text>
      <text x="450" y="132">500 ms</text>
      <text x="300" y="188">0.1</text>
      <text x="450" y="188">0.25</text>
    </g>
  </g>
</svg>
