<svg xmlns="http://www.w3.org/2000/svg" viewBox="0 0 600 262" fill="none" stroke="currentColor">
  <rect x="20" y="40" width="240" height="170" rx="6"/>
  <rect class="d-fill-3 d-tint" x="20" y="40" width="240" height="170" rx="6"/>
  <rect class="d-stroke-3" x="20" y="40" width="240" height="170" rx="6" stroke-dasharray="5 4"/>
  <rect x="300" y="40" width="280" height="170" rx="6"/>
  <path class="d-muted" d="M440 40 V 184 M300 125 H 580" stroke-dasharray="2 4"/>
  <rect class="d-bg" fill="currentColor" stroke="none" x="310" y="50" width="104" height="26" rx="4"/>
  <rect class="d-fill-0 d-tint" x="310" y="50" width="104" height="26" rx="4"/>
  <rect class="d-stroke-0" x="310" y="50" width="104" height="26" rx="4"/>
  <rect class="d-bg" fill="currentColor" stroke="none" x="466" y="50" width="104" height="26" rx="4"/>
  <rect class="d-fill-1 d-tint" x="466" y="50" width="104" height="26" rx="4"/>
  <rect class="d-stroke-1" x="466" y="50" width="104" height="26" rx="4"/>
  <rect class="d-bg" fill="currentColor" stroke="none" x="378.0" y="110.0" width="124" height="30" rx="4"/>
  <rect class="d-fill-2 d-tint" x="378.0" y="110.0" width="124" height="30" rx="4"/>
  <rect class="d-stroke-2" x="378.0" y="110.0" width="124" height="30" rx="4"/>
  <rect class="d-bg" fill="currentColor" stroke="none" x="300" y="184" width="280" height="26"/>
  <rect class="d-fill-0 d-tint" x="300" y="184" width="280" height="26"/>
  <rect class="d-stroke-0" x="300" y="184" width="280" height="26"/>
  <g fill="currentColor" stroke="none">
    <text x="140" y="28" text-anchor="middle">absolute inset-0</text>
    <text x="140" y="120" text-anchor="middle" font-size="11">covers the parent:</text>
    <text x="140" y="138" text-anchor="middle" font-size="11">top, right, bottom, left 0</text>
    <text x="440" y="28" text-anchor="middle">relative parent</text>
    <text x="362" y="67" text-anchor="middle" font-size="11">top-2 left-2</text>
    <text x="518" y="67" text-anchor="middle" font-size="11">top-2 right-2</text>
    <text x="440" y="129" text-anchor="middle" font-size="11">-translate-1/2</text>
    <text x="448" y="159" text-anchor="start" font-size="11" class="d-muted">top-1/2 left-1/2</text>
    <text x="440" y="201" text-anchor="middle" font-size="11">inset-x-0 bottom-0</text>
    <text x="300" y="248" text-anchor="middle" font-size="11" class="d-muted">absolute children measure from the nearest positioned ancestor (relative)</text>
  </g>
</svg>
