<svg xmlns="http://www.w3.org/2000/svg" viewBox="0 0 600 350" fill="none" stroke="currentColor">
  <g class="d-fill-0 d-tint d-stroke-0">
    <rect x="20" y="96" width="6" height="6"/>
    <rect x="46" y="90" width="12" height="12"/>
    <rect x="78" y="84" width="18" height="18"/>
    <rect x="116" y="78" width="24" height="24"/>
    <rect x="160" y="66" width="36" height="36"/>
    <rect x="216" y="54" width="48" height="48"/>
    <rect x="284" y="30" width="72" height="72"/>
    <rect x="376" y="6" width="96" height="96"/>
  </g>
  <g fill="currentColor" stroke="none" text-anchor="middle">
    <text x="23" y="122">4</text>
    <text x="52" y="122">8</text>
    <text x="87" y="122">12</text>
    <text x="128" y="122">16</text>
    <text x="178" y="122">24</text>
    <text x="240" y="122">32</text>
    <text x="320" y="122">48</text>
    <text x="424" y="122">64</text>
    <g class="d-muted" font-size="11">
      <text x="23" y="138">1</text>
      <text x="52" y="138">2</text>
      <text x="87" y="138">3</text>
      <text x="128" y="138">4</text>
      <text x="178" y="138">6</text>
      <text x="240" y="138">8</text>
      <text x="320" y="138">12</text>
      <text x="424" y="138">16</text>
    </g>
    <g text-anchor="start">
      <text x="496" y="80">px</text>
      <text class="d-muted" x="496" y="98" font-size="11">space-n</text>
      <text class="d-muted" x="496" y="138" font-size="11">drawn 1.5×</text>
    </g>
  </g>
  <rect class="d-fill-2 d-tint d-stroke-2" x="20" y="176" width="300" height="160" rx="8"/>
  <rect class="d-bg" x="44" y="200" width="252" height="112" stroke="none"/>
  <rect class="d-fill-1 d-tint" x="44" y="210" width="252" height="8" stroke="none"/>
  <rect class="d-fill-3 d-tint" x="44" y="246" width="252" height="24" stroke="none"/>
  <rect class="d-fill-1 d-tint" x="44" y="280" width="252" height="8" stroke="none"/>
  <g class="d-muted" fill="currentColor" stroke="none">
    <rect x="44" y="200" width="72" height="10" rx="2"/>
    <rect x="44" y="270" width="96" height="10" rx="2"/>
  </g>
  <rect x="44" y="218" width="252" height="28" rx="4"/>
  <rect x="44" y="288" width="252" height="24" rx="4"/>
  <g class="d-fill-2 d-tint d-stroke-2"><rect x="360" y="196" width="16" height="16" rx="2"/></g>
  <g class="d-fill-1 d-tint d-stroke-1"><rect x="360" y="232" width="16" height="16" rx="2"/></g>
  <g class="d-fill-3 d-tint d-stroke-3"><rect x="360" y="268" width="16" height="16" rx="2"/></g>
  <g fill="currentColor" stroke="none">
    <text x="20" y="166">nesting: inner space ≤ outer space</text>
    <text x="388" y="209">24 card padding</text>
    <text x="388" y="245">8 label → field</text>
    <text x="388" y="281">24 field → field</text>
    <text class="d-muted" x="360" y="318" font-size="11">tight inside a group,</text>
    <text class="d-muted" x="360" y="334" font-size="11">loose between groups</text>
  </g>
</svg>
